<?xml version="1.0" encoding="utf-8"?>
<!-- Generator: Adobe Illustrator 23.0.3, SVG Export Plug-In . SVG Version: 6.00 Build 0)  -->
<svg version="1.1" id="Layer_1" xmlns="http://www.w3.org/2000/svg" xmlns:xlink="http://www.w3.org/1999/xlink" x="0px" y="0px"
	 viewBox="0 0 2592 1728" style="enable-background:new 0 0 2592 1728;" xml:space="preserve">
<style type="text/css">
	.st0{fill:url(#SVGID_1_);}
	.st1{fill:url(#SVGID_2_);}
	.st2{fill:url(#SVGID_3_);}
	.st3{fill:url(#SVGID_4_);}
	.st4{fill:url(#SVGID_5_);}
</style>
<linearGradient id="SVGID_1_" gradientUnits="userSpaceOnUse" x1="2040.3171" y1="1597.6702" x2="2040.3171" y2="1597.6702">
	<stop  offset="0" style="stop-color:#B62655"/>
	<stop  offset="0.5" style="stop-color:#472B7A;stop-opacity:0.9"/>
	<stop  offset="1" style="stop-color:#457EC0"/>
</linearGradient>
<path class="st0" d="M2040.32,1597.67"/>
<g>
	<linearGradient id="SVGID_2_" gradientUnits="userSpaceOnUse" x1="287.7679" y1="846.6583" x2="2267.6851" y2="846.6583">
		<stop  offset="0" style="stop-color:#B62655"/>
		<stop  offset="0.5" style="stop-color:#472B7A;stop-opacity:0.9"/>
		<stop  offset="1" style="stop-color:#457EC0"/>
	</linearGradient>
	<path class="st1" d="M968.27,878.56c3.66-6.64,6.73-13.57,9.42-20.66c5.08-13.38,8.99-27.17,13.39-40.78l-592.68-0.83
		c-7.26-0.07-18.31-0.13-31.84,0c-22.49,0.22-28.45,0.73-38.32,0c-9.71-0.72-23.65-2.66-40.48-8.35l4.53,7.62
		c2.38,2.7,6.07,6.74,10.84,11.36c7.44,7.19,38.19,35.77,88.59,50.06c13.65,3.87,33.83,8.14,58.92,8.25l16.34,0.14l498.02-0.36
		C965.97,882.86,967.07,880.74,968.27,878.56z"/>
	<linearGradient id="SVGID_3_" gradientUnits="userSpaceOnUse" x1="291.7236" y1="854.649" x2="2284.9016" y2="854.649">
		<stop  offset="0" style="stop-color:#B62655"/>
		<stop  offset="0.5" style="stop-color:#472B7A;stop-opacity:0.9"/>
		<stop  offset="1" style="stop-color:#457EC0"/>
	</linearGradient>
	<path class="st2" d="M2220.18,843.31c-44.78-23.63-86.71-24.74-106.72-23.95l-538.68-1.83c8.23-49.27,22.15-117.36,46.74-196.95
		c2.43-7.87,13.1-42.15,30.34-88.54c20.67-55.61,51.56-130.7,96.75-218.11l-112.8-92.55c-30.98,62.22-61.72,131.98-89.8,209.14
		c-49.4,135.76-78.57,261.41-95.97,369.26l-2.67,17.57l-308.8-0.2c28.91-112.56,29.42-206.05,25.23-266.8
		c-3.12-45.25-7.94-108.04-37.5-183.97c-10.69-27.45-24.39-63.32-53.55-103.43c-17.69-24.33-52.24-71.77-114.7-104.24
		c-13.75-7.15-25.71-11.95-33.97-14.97l-4.91-1.3c7.01,7.55,16.89,18.7,27.79,32.89c71.97,93.71,89.04,190.83,98.22,243.12
		c30.9,175.86-18.52,338.97-38.57,397.62c-0.03,0.12-0.04,0.25-0.08,0.38c-4.75,14.37-8.82,28.98-14.24,43.12
		c-2.56,6.67-5.39,13.25-8.72,19.57c-1.06,2.01-2.09,3.94-3.05,5.87l456.37-0.33c-2.84,32.18-6.17,78.72-7.4,135
		c-1.61,73.93-2.69,135.98,9.25,214.53c7.68,50.58,14.39,92.76,37.05,145.29c13.19,30.57,33,75.27,77.05,117.88
		c31.32,30.3,66.87,49.21,72.89,52.43c11.03,5.9,20.66,10.26,27.81,13.29l9.27,3.76c-11.49-12.55-26.85-30.9-42.18-54.91
		c-20.77-32.53-38.31-70.46-52.82-125.09c-20.93-78.79-22.19-141.98-23.66-215.53c-1.84-91.89,5.89-170.62,10.32-214.43
		c1.76-17.38,3.45-31.88,4.69-42.12l3.29-27.74l628.35,1.85c7.19-0.13,31.03-0.49,53.44,0.54c6.72,0.31,14.89,0.82,25.23,2.9
		c5.41,1.09,4.91,0.93,8.01,1.84l7.41,2.37C2273.21,882.14,2252.35,860.28,2220.18,843.31z"/>
	<linearGradient id="SVGID_4_" gradientUnits="userSpaceOnUse" x1="1674.7092" y1="1292.5042" x2="2467.2925" y2="1292.5042">
		<stop  offset="0" style="stop-color:#472B7A;stop-opacity:0.9"/>
		<stop  offset="1" style="stop-color:#457EC0"/>
	</linearGradient>
	<path class="st3" d="M1674.99,1578.45l6.07,5.86c32.61,25.33,93.73,65.84,179.91,83.94c107.62,22.61,193.4-2.5,242.28-17.45
		c44.43-13.59,144.37-45.55,232.49-139.89c24.82-26.58,108.37-121.99,127.62-268.14c12.68-96.31-7.01-180.85-33.44-230.32
		c-5.97-11.18-17.88-33.03-41.05-54.98c-28.5-27.01-58.84-39.76-77.27-45.87l-13.29-3.86l3.75,3.76c1.04,1.44,3.01,4.23,5.34,7.81
		c0,0,14,23.71,24.99,52.6c43.02,113.09,17.62,217.34,6.89,258.97c-31.33,121.54-102.65,199.2-138.26,232.94
		c-93.87,88.94-195.14,114.88-239,125.53c-38.59,9.37-132.73,31.1-243.53,2.63c-11.47-2.95-20.85-5.85-27.2-7.92l-16.56-5.95
		L1674.99,1578.45z"/>
	
		<linearGradient id="SVGID_5_" gradientUnits="userSpaceOnUse" x1="1398.2826" y1="1197.6471" x2="2190.8657" y2="1197.6471" gradientTransform="matrix(-1 0 0 -1 2302.5732 1615.5812)">
		<stop  offset="0" style="stop-color:#5F3076"/>
		<stop  offset="1" style="stop-color:#A42F60"/>
	</linearGradient>
	<path class="st4" d="M904.01,131.99l-6.07-5.86C865.33,100.8,804.2,60.3,718.03,42.19c-107.62-22.61-193.4,2.5-242.28,17.45
		c-44.43,13.59-144.37,45.55-232.49,139.89c-24.82,26.58-108.37,121.99-127.62,268.14c-12.68,96.31,7.01,180.85,33.44,230.32
		c5.97,11.18,17.88,33.03,41.05,54.98c28.5,27.01,58.84,39.76,77.27,45.87l13.29,3.86l-3.75-3.76c-1.04-1.44-3.01-4.23-5.34-7.81
		c0,0-14-23.71-24.99-52.6c-43.02-113.09-17.62-217.34-6.89-258.97c31.33-121.54,102.65-199.2,138.26-232.94
		c93.87-88.94,195.14-114.88,239-125.53c38.59-9.37,132.73-31.1,243.53-2.63c11.47,2.95,20.85,5.85,27.2,7.92l16.56,5.95
		L904.01,131.99z"/>
</g>
</svg>
